<svg width="105" height="25" viewBox="0 0 105 25" fill="none" xmlns="http://www.w3.org/2000/svg">
<path d="M3.13636 13.5V24H0.454545V6.54545H3.04545V9.27273H3.27273C3.68182 8.38636 4.30303 7.67424 5.13636 7.13636C5.9697 6.59091 7.04545 6.31818 8.36364 6.31818C9.54545 6.31818 10.5795 6.56061 11.4659 7.04545C12.3523 7.52273 13.0417 8.25 13.5341 9.22727C14.0265 10.197 14.2727 11.4242 14.2727 12.9091V24H11.5909V13.0909C11.5909 11.7197 11.2348 10.6515 10.5227 9.88636C9.81061 9.11364 8.83333 8.72727 7.59091 8.72727C6.73485 8.72727 5.9697 8.91288 5.29545 9.28409C4.62879 9.6553 4.10227 10.197 3.71591 10.9091C3.32955 11.6212 3.13636 12.4848 3.13636 13.5ZM26.4915 24.3636C24.8097 24.3636 23.3589 23.9924 22.1392 23.25C20.9271 22.5 19.9915 21.4545 19.3324 20.1136C18.6809 18.7652 18.3551 17.197 18.3551 15.4091C18.3551 13.6212 18.6809 12.0455 19.3324 10.6818C19.9915 9.31061 20.9081 8.24242 22.0824 7.47727C23.2642 6.70455 24.643 6.31818 26.2188 6.31818C27.1278 6.31818 28.0256 6.4697 28.9119 6.77273C29.7983 7.07576 30.6051 7.56818 31.3324 8.25C32.0597 8.92424 32.6392 9.81818 33.071 10.9318C33.5028 12.0455 33.7188 13.4167 33.7188 15.0455V16.1818H20.2642V13.8636H30.9915C30.9915 12.8788 30.7945 12 30.4006 11.2273C30.0142 10.4545 29.4612 9.8447 28.7415 9.39773C28.0294 8.95076 27.1884 8.72727 26.2188 8.72727C25.1506 8.72727 24.2263 8.99242 23.446 9.52273C22.6733 10.0455 22.0786 10.7273 21.6619 11.5682C21.2453 12.4091 21.0369 13.3106 21.0369 14.2727V15.8182C21.0369 17.1364 21.2642 18.2538 21.7188 19.1705C22.1809 20.0795 22.821 20.7727 23.6392 21.25C24.4574 21.7197 25.4081 21.9545 26.4915 21.9545C27.196 21.9545 27.8324 21.8561 28.4006 21.6591C28.9763 21.4545 29.4725 21.1515 29.8892 20.75C30.3059 20.3409 30.6278 19.8333 30.8551 19.2273L33.446 19.9545C33.1733 20.8333 32.715 21.6061 32.071 22.2727C31.4271 22.9318 30.6316 23.447 29.6847 23.8182C28.7377 24.1818 27.6733 24.3636 26.4915 24.3636ZM45.3892 6.54545V8.81818H36.3438V6.54545H45.3892ZM38.9801 2.36364H41.6619V19C41.6619 19.7576 41.7718 20.3258 41.9915 20.7045C42.2188 21.0758 42.5066 21.3258 42.8551 21.4545C43.2112 21.5758 43.5862 21.6364 43.9801 21.6364C44.2756 21.6364 44.518 21.6212 44.7074 21.5909C44.8968 21.553 45.0483 21.5227 45.1619 21.5L45.7074 23.9091C45.5256 23.9773 45.2718 24.0455 44.946 24.1136C44.6203 24.1894 44.2074 24.2273 43.7074 24.2273C42.9498 24.2273 42.2074 24.0644 41.4801 23.7386C40.7604 23.4129 40.1619 22.9167 39.6847 22.25C39.215 21.5833 38.9801 20.7424 38.9801 19.7273V2.36364ZM54.3778 24L47.5142 0.727272H54.5597L57.7415 15.0455H57.9233L61.696 0.727272H67.2415L71.0142 15.0909H71.196L74.3778 0.727272H81.4233L74.5597 24H68.5142L64.5597 11H64.3778L60.4233 24H54.3778ZM104.545 12.3636C104.545 14.9545 104.042 17.1402 103.034 18.9205C102.027 20.6932 100.667 22.0379 98.9545 22.9545C97.2424 23.8636 95.3333 24.3182 93.2273 24.3182C91.1061 24.3182 89.1894 23.8598 87.4773 22.9432C85.7727 22.0189 84.4167 20.6705 83.4091 18.8977C82.4091 17.1174 81.9091 14.9394 81.9091 12.3636C81.9091 9.77273 82.4091 7.59091 83.4091 5.81818C84.4167 4.03788 85.7727 2.69318 87.4773 1.78409C89.1894 0.867423 91.1061 0.40909 93.2273 0.40909C95.3333 0.40909 97.2424 0.867423 98.9545 1.78409C100.667 2.69318 102.027 4.03788 103.034 5.81818C104.042 7.59091 104.545 9.77273 104.545 12.3636ZM98.0455 12.3636C98.0455 10.9697 97.8598 9.79545 97.4886 8.84091C97.125 7.87879 96.5833 7.15151 95.8636 6.65909C95.1515 6.15909 94.2727 5.90909 93.2273 5.90909C92.1818 5.90909 91.2992 6.15909 90.5795 6.65909C89.8674 7.15151 89.3258 7.87879 88.9545 8.84091C88.5909 9.79545 88.4091 10.9697 88.4091 12.3636C88.4091 13.7576 88.5909 14.9356 88.9545 15.8977C89.3258 16.8523 89.8674 17.5795 90.5795 18.0795C91.2992 18.572 92.1818 18.8182 93.2273 18.8182C94.2727 18.8182 95.1515 18.572 95.8636 18.0795C96.5833 17.5795 97.125 16.8523 97.4886 15.8977C97.8598 14.9356 98.0455 13.7576 98.0455 12.3636Z" fill="white"/>
</svg>
